solid
facet normal -1 0 0
outer loop
vertex 0 10 0
vertex 0 5 0
vertex 0 10 4.32
endloop
endfacet
facet normal -1 0 0
outer loop
vertex 0 5 0
vertex 0 0 0
vertex 0 0 4.33
endloop
endfacet
facet normal -1 0 0
outer loop
vertex 0 0 10
vertex 0 10 10
vertex 0 5.00072929 5.774304696
endloop
endfacet
facet normal -1 0 0
outer loop
vertex 0 0 4.33
vertex 0 0 10
vertex 0 5.00072929 5.774304696
endloop
endfacet
facet normal -1 0 -0
outer loop
vertex 0 10 10
vertex 0 10 4.32
vertex 0 5.00072929 5.774304696
endloop
endfacet
facet normal -1 0 0
outer loop
vertex 0 5 0
vertex 0 0 4.33
vertex 0 5.00072929 5.774304696
endloop
endfacet
facet normal -1 -0 0
outer loop
vertex 0 10 4.32
vertex 0 5 0
vertex 0 5.00072929 5.774304696
endloop
endfacet
facet normal 1 -0 0
outer loop
vertex 10 0 10
vertex 10 0 5
vertex 10 4.97 10
endloop
endfacet
facet normal 1 0 0
outer loop
vertex 10 0 5
vertex 10 0 0
vertex 10 4.98 0
endloop
endfacet
facet normal 1 0 0
outer loop
vertex 10 4.98 0
vertex 10 10 0
vertex 10 10 5
endloop
endfacet
facet normal 1 0 -0
outer loop
vertex 10 10 5
vertex 10 10 10
vertex 10 4.97 10
endloop
endfacet
facet normal 1 -0 0
outer loop
vertex 10 0 5
vertex 10 4.98 0
vertex 10 10 5
endloop
endfacet
facet normal 1 0 0
outer loop
vertex 10 4.97 10
vertex 10 0 5
vertex 10 10 5
endloop
endfacet
facet normal 0 -1 0
outer loop
vertex 0 0 10
vertex 0 0 4.32
vertex 5.66 0 10
endloop
endfacet
facet normal 0 -1 0
outer loop
vertex 0 0 4.32
vertex 0 0 0
vertex 5.29 0 0
endloop
endfacet
facet normal 0 -1 0
outer loop
vertex 5.29 0 0
vertex 10 0 0
vertex 10 0 5
endloop
endfacet
facet normal 0 -1 0
outer loop
vertex 10 0 5
vertex 10 0 10
vertex 5.66 0 10
endloop
endfacet
facet normal 0 -1 0
outer loop
vertex 0 0 4.32
vertex 5.29 0 0
vertex 5.66 0 10
endloop
endfacet
facet normal -0 -1 0
outer loop
vertex 10 0 5
vertex 5.66 0 10
vertex 5.29 0 0
endloop
endfacet
facet normal 0 1 -0
outer loop
vertex 10 10 0
vertex 5.28 10 0
vertex 10 10 5
endloop
endfacet
facet normal 0 1 0
outer loop
vertex 5.28 10 0
vertex 0 10 0
vertex 0 10 4.33
endloop
endfacet
facet normal 0 1 0
outer loop
vertex 0 10 4.33
vertex 0 10 10
vertex 5.67 10 10
endloop
endfacet
facet normal -0 1 0
outer loop
vertex 5.67 10 10
vertex 10 10 10
vertex 10 10 5
endloop
endfacet
facet normal 0 1 -0
outer loop
vertex 5.28 10 0
vertex 0 10 4.33
vertex 5.67 10 10
endloop
endfacet
facet normal 0 1 0
outer loop
vertex 10 10 5
vertex 5.28 10 0
vertex 5.67 10 10
endloop
endfacet
facet normal 0 0 -1
outer loop
vertex 10 0 0
vertex 5.28 0 0
vertex 10 4.97 0
endloop
endfacet
facet normal 0 0 -1
outer loop
vertex 5.28 0 0
vertex 0 0 0
vertex 0 5 0
endloop
endfacet
facet normal 0 0 -1
outer loop
vertex 0 5 0
vertex 0 10 0
vertex 5.29 10 0
endloop
endfacet
facet normal 0 0 -1
outer loop
vertex 5.29 10 0
vertex 10 10 0
vertex 10 4.97 0
endloop
endfacet
facet normal 0 0 -1
outer loop
vertex 5.28 0 0
vertex 0 5 0
vertex 5.29 10 0
endloop
endfacet
facet normal -0 0 -1
outer loop
vertex 10 4.97 0
vertex 5.28 0 0
vertex 5.29 10 0
endloop
endfacet
facet normal 0 0 1
outer loop
vertex 0 10 10
vertex 0 0 10
vertex 5.178591691 5.74567488 10
endloop
endfacet
facet normal 0 0 1
outer loop
vertex 5.66 10 10
vertex 0 10 10
vertex 5.178591691 5.74567488 10
endloop
endfacet
facet normal 0 0 1
outer loop
vertex 0 0 10
vertex 5.67 0 10
vertex 5.178591691 5.74567488 10
endloop
endfacet
facet normal 0 0 1
outer loop
vertex 5.67 0 10
vertex 10 0 10
vertex 10 4.98 10
endloop
endfacet
facet normal 0 -0 1
outer loop
vertex 10 4.98 10
vertex 10 10 10
vertex 5.178591691 5.74567488 10
endloop
endfacet
facet normal 0 0 1
outer loop
vertex 10 10 10
vertex 5.66 10 10
vertex 5.178591691 5.74567488 10
endloop
endfacet
facet normal 0 -0 1
outer loop
vertex 5.67 0 10
vertex 10 4.98 10
vertex 5.178591691 5.74567488 10
endloop
endfacet
endsolid
